HIERARCHY
ROOT Hips
{
	OFFSET 0.000000 0.000000 0.000000
	CHANNELS 6 Xposition Yposition Zposition Xrotation Yrotation Zrotation
	JOINT LeftUpLeg_virtual
	{
		OFFSET 0.000000 0.000000 0.000000
		CHANNELS 3 Xrotation Yrotation Zrotation
		JOINT LeftUpLeg
		{
			OFFSET 13.026900 -6.336304 -1.092800
			CHANNELS 3 Xrotation Yrotation Zrotation
			JOINT LeftLeg
			{
				OFFSET 0.524474 -46.096886 9.782700
				CHANNELS 3 Xrotation Yrotation Zrotation
				JOINT LeftFoot
				{
					OFFSET -0.524474 -53.427422 -12.948200
					CHANNELS 3 Xrotation Yrotation Zrotation
					JOINT LeftToeBase
					{
						OFFSET 0.192200 -14.009700 16.364100
						CHANNELS 3 Xrotation Yrotation Zrotation
						JOINT LeftToe_End
						{
							OFFSET -1.784700 -0.561700 9.474800
							CHANNELS 3 Xrotation Yrotation Zrotation
							End Site
							{
								OFFSET 0 0 0
							}
						}
					}
				}
			}
		}
	}
	JOINT RightUpLeg_virtual
	{
		OFFSET 0.000000 0.000000 0.000000
		CHANNELS 3 Xrotation Yrotation Zrotation
		JOINT RightUpLeg
		{
			OFFSET -12.883000 -6.336304 -1.092800
			CHANNELS 3 Xrotation Yrotation Zrotation
			JOINT RightLeg
			{
				OFFSET -0.524587 -46.096825 9.782800
				CHANNELS 3 Xrotation Yrotation Zrotation
				JOINT RightFoot
				{
					OFFSET 0.524587 -53.427383 -12.948300
					CHANNELS 3 Xrotation Yrotation Zrotation
					JOINT RightToeBase
					{
						OFFSET -0.192200 -14.009700 16.364100
						CHANNELS 3 Xrotation Yrotation Zrotation
						JOINT RightToe_End
						{
							OFFSET 1.784700 -0.561700 9.474800
							CHANNELS 3 Xrotation Yrotation Zrotation
							End Site
							{
								OFFSET 0 0 0
							}
						}
					}
				}
			}
		}
	}
	JOINT Spine_virtual
	{
		OFFSET 0.000000 0.000000 0.000000
		CHANNELS 3 Xrotation Yrotation Zrotation
		JOINT Spine
		{
			OFFSET 0.072000 7.257294 -0.789700
			CHANNELS 3 Xrotation Yrotation Zrotation
			JOINT Spine1
			{
				OFFSET 0.000000 12.508769 -0.658067
				CHANNELS 3 Xrotation Yrotation Zrotation
				JOINT Spine1_split
				{
					OFFSET 0.000000 12.508769 -0.658067
					CHANNELS 3 Xrotation Yrotation Zrotation
					JOINT Spine2
					{
						OFFSET 0.000000 12.508769 -0.658067
						CHANNELS 3 Xrotation Yrotation Zrotation
						JOINT Neck_virtual
						{
							OFFSET 0.000000 0.000000 0.000000
							CHANNELS 3 Xrotation Yrotation Zrotation
							JOINT Neck
							{
								OFFSET 0.000000 14.033295 7.520400
								CHANNELS 3 Xrotation Yrotation Zrotation
								JOINT Head
								{
									OFFSET 0.000000 8.198502 5.703100
									CHANNELS 3 Xrotation Yrotation Zrotation
									JOINT HeadTop_End
									{
										OFFSET 0.000000 17.760803 13.332701
										CHANNELS 3 Xrotation Yrotation Zrotation
										End Site
										{
											OFFSET 0 0 0
										}
									}
								}
							}
						}
						JOINT LeftShoulder_virtual
						{
							OFFSET 0.000000 0.000000 0.000000
							CHANNELS 3 Xrotation Yrotation Zrotation
							JOINT LeftShoulder
							{
								OFFSET 6.292450 5.785301 -0.669000
								CHANNELS 3 Xrotation Yrotation Zrotation
								JOINT LeftShoulder_split
								{
									OFFSET 6.292450 5.785301 -0.669000
									CHANNELS 3 Xrotation Yrotation Zrotation
									JOINT LeftArm
									{
										OFFSET 13.907140 -6.093903 1.965100
										CHANNELS 3 Xrotation Yrotation Zrotation
										JOINT LeftForeArm
										{
											OFFSET 34.140198 0.000000 0.000000
											CHANNELS 3 Xrotation Yrotation Zrotation
											JOINT LeftHand
											{
												OFFSET 40.960209 0.000000 0.000000
												CHANNELS 3 Xrotation Yrotation Zrotation
												End Site
												{
													OFFSET 0 0 0
												}
											}
										}
									}
								}
							}
						}
						JOINT RightShoulder_virtual
						{
							OFFSET 0.000000 0.000000 0.000000
							CHANNELS 3 Xrotation Yrotation Zrotation
							JOINT RightShoulder
							{
								OFFSET -6.292450 5.785301 -0.669000
								CHANNELS 3 Xrotation Yrotation Zrotation
								JOINT RightShoulder_split
								{
									OFFSET -6.292450 5.785301 -0.669000
									CHANNELS 3 Xrotation Yrotation Zrotation
									JOINT RightArm
									{
										OFFSET -13.907140 -6.093903 1.965100
										CHANNELS 3 Xrotation Yrotation Zrotation
										JOINT RightForeArm
										{
											OFFSET -34.140198 0.000000 0.000000
											CHANNELS 3 Xrotation Yrotation Zrotation
											JOINT RightHand
											{
												OFFSET -40.960209 0.000000 0.000000
												CHANNELS 3 Xrotation Yrotation Zrotation
												End Site
												{
													OFFSET 0 0 0
												}
											}
										}
									}
								}
							}
						}
					}
				}
			}
		}
	}
}
MOTION
Frames: 6
Frame Time: 0.03333333
11.949040 13.738312 243.608627 0.000000 0.000000 0.000000 -95.931749 -0.342792 -0.204887 -38.453337 -47.810959 38.457944 95.292559 -23.052315 -0.781578 8.628951 -3.963457 -20.156600 -5.070209 0.198399 -1.849167 0.000000 0.000000 0.000000 -100.054266 3.789268 2.603211 -50.149534 16.853461 -22.969445 89.936857 10.697256 -2.452984 10.803747 1.404064 18.871492 7.253789 0.683718 1.968822 0.000000 0.000000 0.000000 -97.589374 2.847294 0.624380 6.277378 -0.757491 3.333987 2.057879 -0.330961 0.167326 0.571490 -0.951764 -0.100724 0.000000 0.000000 0.000000 0.945309 -0.650977 0.848528 10.257402 -1.561110 1.227276 20.542342 0.353971 1.071913 0.000000 0.000000 0.000000 -0.085620 -0.256849 0.241402 -0.053552 -15.927438 -5.375866 -3.832574 5.008118 -2.234450 67.112182 -22.229187 -38.922711 -0.409715 -38.539243 -0.717582 0.000000 0.000000 0.000000 0.094001 -1.038830 0.225951 -2.141952 3.938180 16.783023 9.133606 6.491860 -3.786218 71.225984 26.338495 23.388453 -0.072658 23.298943 -0.163883 0.000000 0.000000 0.000000 
12.264610 13.795723 243.647736 0.000000 0.000000 0.000000 -95.865427 -0.191675 -0.108672 -39.214776 -48.787136 37.134847 95.422872 -22.611712 -0.622753 8.845804 -3.820452 -20.018800 -5.263659 0.168189 -1.817550 0.000000 0.000000 0.000000 -99.938358 3.664936 2.404098 -50.191604 15.051915 -23.319681 89.334086 10.439954 -2.743100 9.777444 1.620525 19.178978 6.968297 0.778825 1.736372 0.000000 0.000000 0.000000 -97.438488 2.723297 0.379755 6.625857 -0.799707 3.049887 2.227930 -0.321127 0.174239 0.541421 -0.811990 -0.070519 0.000000 0.000000 0.000000 1.118599 -0.637066 0.805274 10.900777 -2.159145 1.226309 22.180052 -0.607106 1.128086 0.000000 0.000000 0.000000 0.013970 -0.227632 0.292545 0.094667 -16.161122 -5.730816 -3.225099 5.403410 -2.230562 66.465964 -21.312530 -39.280001 -0.800404 -39.566289 -0.991679 0.000000 0.000000 0.000000 0.208097 -1.036388 0.179774 -2.416661 3.568219 17.317198 9.670487 6.298224 -3.838750 69.498732 25.674555 23.490025 -0.233137 23.521092 0.113900 0.000000 0.000000 0.000000 
12.564737 13.913712 243.770523 0.000000 0.000000 0.000000 -95.677092 -0.137162 -0.134986 -39.966582 -49.522884 36.065342 95.618257 -22.048728 -0.526938 9.082252 -3.745049 -19.774393 -5.738175 0.110272 -1.716932 0.000000 0.000000 0.000000 -99.696317 3.482841 2.163106 -49.867105 12.923544 -23.829376 88.594438 10.188208 -2.912314 8.427823 1.908711 19.386819 6.829620 0.840621 1.443888 0.000000 0.000000 0.000000 -97.332832 2.531877 0.098454 7.120096 -0.851979 2.717407 2.494108 -0.329186 0.181922 0.708200 -0.802945 -0.158051 0.000000 0.000000 0.000000 1.325685 -0.659202 0.762051 11.628675 -2.672567 1.100750 23.619597 -1.477111 1.069632 0.000000 0.000000 0.000000 0.187280 -0.238058 0.319769 0.288774 -15.996327 -6.064729 -2.481943 5.507340 -2.161774 65.696202 -20.263626 -39.175096 -1.570328 -40.106260 -1.458880 0.000000 0.000000 0.000000 0.413162 -1.064596 0.109516 -2.650926 3.296118 17.634201 10.164116 6.190626 -3.931071 67.228227 25.001887 24.137240 -0.455888 23.936758 0.370324 0.000000 0.000000 0.000000 
12.791060 14.091125 243.912308 0.000000 0.000000 0.000000 -95.404567 -0.213023 -0.337458 -40.981883 -50.031351 35.102323 96.082423 -21.524341 -0.415095 9.445277 -3.915301 -19.471691 -6.365107 0.022521 -1.586205 0.000000 0.000000 0.000000 -99.398268 3.307878 1.926382 -49.133123 10.547340 -24.415543 87.559118 9.921003 -2.959797 6.889501 2.190016 19.570304 6.806055 0.856937 1.120378 0.000000 0.000000 0.000000 -97.263465 2.306568 -0.169081 7.699089 -0.935796 2.382836 2.852456 -0.348903 0.205517 0.882252 -0.887309 -0.231058 0.000000 0.000000 0.000000 1.586553 -0.716325 0.741078 12.462175 -3.090131 0.883364 24.882938 -2.208985 0.961467 0.000000 0.000000 0.000000 0.450027 -0.281981 0.339953 0.527519 -15.366292 -6.506727 -1.630481 5.319801 -1.960965 64.689179 -19.180042 -38.483482 -2.491570 -40.266434 -1.949594 0.000000 0.000000 0.000000 0.729004 -1.117755 0.047888 -2.865173 3.266534 17.913243 10.464929 6.235441 -4.048377 64.731301 24.377089 25.185858 -0.659116 24.329515 0.555798 0.000000 0.000000 0.000000 
12.955733 14.385063 244.057495 0.000000 0.000000 0.000000 -95.126756 -0.370983 -0.671522 -42.462511 -50.315750 33.998988 96.859172 -21.101379 -0.292125 9.896362 -4.260325 -19.046645 -6.894631 -0.075526 -1.504284 0.000000 0.000000 0.000000 -99.106899 3.177484 1.699515 -48.005192 8.034558 -24.982334 86.006698 9.687264 -2.965210 5.340186 2.429426 19.822575 6.891303 0.834403 0.796107 0.000000 0.000000 0.000000 -97.160623 2.066615 -0.456229 8.271599 -1.040140 2.120426 3.259153 -0.369313 0.243718 0.934562 -1.067419 -0.394937 0.000000 0.000000 0.000000 1.914102 -0.799411 0.732342 13.366959 -3.376354 0.620118 25.981290 -2.831857 0.884294 0.000000 0.000000 0.000000 0.788612 -0.340441 0.358413 0.810564 -14.153929 -7.177358 -0.664410 4.802186 -1.667636 63.530356 -18.191015 -37.168148 -3.327507 -40.410643 -2.337829 0.000000 0.000000 0.000000 1.147414 -1.195321 0.006282 -3.081873 3.565057 18.282581 10.471516 6.378940 -4.030544 62.281954 23.814274 26.303812 -0.796754 24.473845 0.659319 0.000000 0.000000 0.000000 
13.122963 14.761452 244.172180 0.000000 0.000000 0.000000 -94.824425 -0.525296 -1.027707 -44.408575 -50.427949 32.590603 97.869869 -20.714806 -0.185442 10.295946 -4.618503 -18.519172 -7.090879 -0.158847 -1.542948 0.000000 0.000000 0.000000 -98.719395 3.132425 1.484992 -46.557141 5.538922 -25.486832 83.861377 9.459990 -2.925455 3.924154 2.585640 20.178153 7.051160 0.779977 0.522942 0.000000 0.000000 0.000000 -96.960539 1.845626 -0.764362 8.788824 -1.140892 1.979877 3.690764 -0.377112 0.280046 0.817204 -1.228843 -0.454293 0.000000 0.000000 0.000000 2.307856 -0.891800 0.730798 14.258881 -3.540104 0.374933 27.001268 -3.322423 0.861750 0.000000 0.000000 0.000000 1.190350 -0.398813 0.361333 1.152395 -12.358003 -8.143051 0.308883 4.040107 -1.293602 62.262147 -17.440729 -35.278651 -3.968066 -40.653443 -2.592088 0.000000 0.000000 0.000000 1.649994 -1.276988 -0.024993 -3.311236 4.150624 18.770664 10.197925 6.556641 -3.963899 60.070858 23.258973 27.141244 -0.866954 24.360986 0.692218 0.000000 0.000000 0.000000 
